{"title":"Cop.Out.DVDRip.XviD-ARROW-[tracker.BTARENA.org].avi","uid":5663917,"size":733582648,"categoryP":"video","categoryS":"movies","magnet":"?xt=urn:btih:3c1a13cfe8a297a67bd83299813c45fefb546ce4&amp;dn=Cop.Out.DVDRip.XviD-ARROW-%5Btracker.BTARENA.org%5D.avi&amp;tr=udp%3A%2F%2Ftracker.openbittorrent.com%3A80&amp;tr=udp%3A%2F%2Fopen.demonii.com%3A1337&amp;tr=udp%3A%2F%2Ftracker.coppersurfer.tk%3A6969&amp;tr=udp%3A%2F%2Fexodus.desync.com%3A6969","seeders":1,"leechers":0,"uploader":"AiTB","files":2,"time":1278069200,"description":"info, sample, subs\n &lt;a href=&quot;\nhttp://www.btarena.org/movies/dvdrip/cop-out-dvdrip-xvid-arrow&quot; rel=&quot;nofollow&quot; target=&quot;_NEW&quot;&gt;\nhttp://www.btarena.org/movies/dvdrip/cop-out-dvdrip-xvid-arrow&lt;/a&gt;\n\n\n\n\n\n\n\nSample/arw-cop.out.dvdrip.xvid-sample.avi\nFormat                           : AVI\nFormat/Info                      : Audio Video Interleave\nFile size                        : 7.97 MiB\nDuration                         : 1mn 1s\nOverall bit rate                 : 1 092 Kbps\nWriting application              : VirtualDubMod 1.5.10.2 (build 2542/release)\nWriting library                  : VirtualDubMod build 2542/release\n\nVideo\nID                               : 0\nFormat                           : MPEG-4 Visual\nFormat profile                   : Advanced Simple@L5\nFormat settings, BVOP            : Yes\nFormat settings, QPel            : No\nFormat settings, GMC             : No warppoints\nFormat settings, Matrix          : Default (H.263)\nCodec ID                         : XVID\nCodec ID/Hint                    : XviD\nDuration                         : 1mn 1s\nBit rate                         : 937 Kbps\nWidth                            : 640 pixels\nHeight                           : 272 pixels\nDisplay aspect ratio             : 2.35:1\nFrame rate                       : 23.976 fps\nResolution                       : 8 bits\nColorimetry                      : 4:2:0\nScan type                        : Progressive\nBits/(Pixel*Frame)               : 0.224\nStream size                      : 6.84 MiB (86%)\nWriting library                  : XviD 1.2.1 (UTC 2008-12-04)\n\nAudio\nID                               : 1\nFormat                           : MPEG Audio\nFormat version                   : Version 1\nFormat profile                   : Layer 3\nFormat_Settings_Mode             : Joint stereo\nFormat_Settings_ModeExtension    : MS Stereo\nCodec ID                         : 55\nCodec ID/Hint                    : MP3\nDuration                         : 1mn 1s\nBit rate mode                    : Variable\nBit rate                         : 139 Kbps\nChannel(s)                       : 2 channels\nSampling rate                    : 48.0 KHz\nStream size                      : 1.03 MiB (13%)\nAlignment                        : Aligned on interleaves\nInterleave, duration             : 24 ms (0.58 video frame)\nInterleave, preload duration     : 515 ms\n\n\n\n\nPlot:\nA comedy about a veteran NYPD cop whose rare baseball card is stolen. Since it's his only hope to pay for his daughter's upcoming wedding, he recruits his partner to track down the thief, a memorabilia-obsessed gangster. \n\n","torrent":{"xt":"urn:btih:3c1a13cfe8a297a67bd83299813c45fefb546ce4","amp;dn":"Cop.Out.DVDRip.XviD-ARROW-%5Btracker.BTARENA.org%5D.avi","amp;tr":["udp%3A%2F%2Ftracker.openbittorrent.com%3A80","udp%3A%2F%2Fopen.demonii.com%3A1337","udp%3A%2F%2Ftracker.coppersurfer.tk%3A6969","udp%3A%2F%2Fexodus.desync.com%3A6969"],"infoHash":"3c1a13cfe8a297a67bd83299813c45fefb546ce4","infoHashBuffer":{"type":"Buffer","data":[60,26,19,207,232,162,151,166,123,216,50,153,129,60,69,254,251,84,108,228]},"announce":[],"urlList":[]}}